<svg xmlns="http://www.w3.org/2000/svg" width="83.387" height="63.128" viewBox="0 0 83.387 63.128"><defs><style>.a,.h{fill:#1a1818;}.a,.b,.c,.d,.f,.g{fill-rule:evenodd;}.b{fill:#64902a;}.c{fill:#0055a5;}.d{fill:#ea4415;}.e{fill:#2b5c25;}.f{fill:#ffa817;}.g{fill:#700912;}</style></defs><path class="a" d="M153.014,633.183a.568.568,0,0,0-.219-.479,2.64,2.64,0,0,0-.789-.341,3.781,3.781,0,0,1-.908-.383,1.213,1.213,0,0,1-.645-1.057,1.149,1.149,0,0,1,.466-.94,1.878,1.878,0,0,1,1.207-.37,2.05,2.05,0,0,1,.878.181,1.446,1.446,0,0,1,.606.518,1.332,1.332,0,0,1,.22.745h-.816a.727.727,0,0,0-.232-.573.959.959,0,0,0-.663-.207,1,1,0,0,0-.624.17.567.567,0,0,0-.222.477.516.516,0,0,0,.24.43,2.776,2.776,0,0,0,.791.335,3.607,3.607,0,0,1,.885.372,1.409,1.409,0,0,1,.489.48,1.252,1.252,0,0,1,.156.635,1.126,1.126,0,0,1-.452.94,1.959,1.959,0,0,1-1.227.348,2.293,2.293,0,0,1-.941-.19,1.571,1.571,0,0,1-.667-.523,1.3,1.3,0,0,1-.239-.779h.821a.763.763,0,0,0,.265.621,1.16,1.16,0,0,0,.761.22,1.008,1.008,0,0,0,.644-.174.557.557,0,0,0,.216-.458m-9.965-.888h-1.938v1.44h2.265v.664h-3.085V629.68h3.062v.664h-2.242v1.3h1.938Zm-10.267,2.1h-.816V629.68h.816ZM121.9,630.344v3.391h.534a1.23,1.23,0,0,0,.99-.4,1.744,1.744,0,0,0,.352-1.153v-.262a1.793,1.793,0,0,0-.333-1.169,1.188,1.188,0,0,0-.969-.4Zm-.82,4.055V629.68h1.394a2.183,2.183,0,0,1,1.109.279,1.9,1.9,0,0,1,.75.791,2.508,2.508,0,0,1,.265,1.173v.236a2.5,2.5,0,0,1-.266,1.18,1.875,1.875,0,0,1-.762.784,2.289,2.289,0,0,1-1.133.275Zm-7.5-2.1h-1.938v1.44h2.265v.664h-3.085V629.68h3.062v.664h-2.242v1.3h1.938ZM99.575,629.68l1.36,3.617,1.358-3.617h1.06V634.4h-.817v-1.555l.082-2.081-1.394,3.636h-.587l-1.389-3.632.081,2.077V634.4h-.816V629.68Zm-8.56,2.615H89.077v1.44h2.265v.664H88.257V629.68h3.061v.664H89.077v1.3h1.938Zm-12.581-.372h.842a.936.936,0,0,0,.648-.209.725.725,0,0,0,.233-.571.776.776,0,0,0-.216-.586.913.913,0,0,0-.643-.213h-.865Zm.914.664h-.914V634.4h-.82V629.68h1.659a1.926,1.926,0,0,1,1.26.367,1.3,1.3,0,0,1,.445,1.061,1.329,1.329,0,0,1-.229.794,1.458,1.458,0,0,1-.637.492l1.06,1.962v.042h-.878Z" transform="translate(-77.614 -571.337)"/><path class="b" d="M298.174,402.958c1.682-2.022-.592-5.4-3.757-2.464-7.57,7.391-22.154,6.492-27.264-4.421-3.323-7.1-10.035-3.732-7.095,2.257,4.1,8.356,12.8,11.643,20.621,11.865,5.976.169,14.156-2.849,17.494-7.236" transform="translate(-229.009 -373.436)"/><path class="c" d="M129.147,282.588c-2.914,3.044-3.542,7.9,1,10.317,1.589.8,3.021,1.5,5.25.507,2.489-1.919,4.043-4.455,3.318-7.935-.8-3.833-6.824-5.759-9.571-2.889m-13.98.941c-.751-4.572-8.322-4.312-7.967,1.612-.075,9.1,6.076,18.92,13.743,23.347,8.372,4.655,18.393,3.675,23.7.726,7.676-4.262,2.285-10.784-4.25-6.21C129.206,310.838,115.61,296.514,115.167,283.529Z" transform="translate(-102.253 -280.368)"/><path class="d" d="M310.968,414.142c6.91-4.259,1.621-10.377-4.762-5.909a15.6,15.6,0,0,0,4.762,5.909" transform="translate(-268.062 -385.596)"/><path class="b" d="M376.513,368.164c-2.843-1.267-6.669-1.182-7.871,2.366a5.131,5.131,0,0,0,.315,4.4c1.923,1.792,4.214,3,6.844,1.811,2.9-1.3,3.7-7.246.712-8.578" transform="translate(-319.787 -352.894)"/><path class="e" d="M246.451,534.55a3.232,3.232,0,0,1-.768.186,7.4,7.4,0,0,1-1.049.07,5.283,5.283,0,0,1-1.829-.3,3.977,3.977,0,0,1-1.421-.874,3.85,3.85,0,0,1-.92-1.409,5.3,5.3,0,0,1-.327-1.933v-9.948h3.168v3.331h2.8v2.447h-2.8v4.17a2.008,2.008,0,0,0,.431,1.317,1.5,1.5,0,0,0,1.224.524,4.087,4.087,0,0,0,.827-.071,4.826,4.826,0,0,0,.663-.185Z" transform="translate(-213.017 -480.295)"/><path class="e" d="M300.879,540.3H304v7.338a4.12,4.12,0,0,1-.374,1.818,3.447,3.447,0,0,1-1.036,1.269,4.537,4.537,0,0,1-1.6.746,8.706,8.706,0,0,1-4.1,0,4.526,4.526,0,0,1-1.6-.746,3.448,3.448,0,0,1-1.037-1.269,4.139,4.139,0,0,1-.372-1.818V540.3h3.168v7.013a2.143,2.143,0,0,0,.443,1.525,2.6,2.6,0,0,0,2.936,0,2.143,2.143,0,0,0,.443-1.525Z" transform="translate(-257.801 -496.929)"/><path class="e" d="M372.748,550.042v-6.383a4.734,4.734,0,0,1,1.467-3.717,5.9,5.9,0,0,1,4.078-1.316c.248,0,.465,0,.652.012s.352.02.5.036.291.035.431.057.3.044.466.059v2.469q-.419-.069-.885-.116t-.839-.046a2.952,2.952,0,0,0-1.98.617,2.274,2.274,0,0,0-.722,1.83v6.5Z" transform="translate(-323.5 -495.532)"/><rect class="e" width="3.169" height="16.308" transform="translate(72.926 38.202)"/><path class="e" d="M86.8,539.724a6.061,6.061,0,0,0-3.367-.969,3.813,3.813,0,0,0-2.695,1.043v-.785H77.92V550.15h3.122v-7.013a2.069,2.069,0,0,1,.466-1.525,2.747,2.747,0,0,1,3.028,0A2.067,2.067,0,0,1,85,543.137v7.013H88.17v-7.338a3.548,3.548,0,0,0-1.374-3.087" transform="translate(-77.869 -495.639)"/><path class="e" d="M163.99,538.926v.278a.086.086,0,0,1-.017-.007v.552c-.5-1-2.3-1.094-2.849-1.1a5.849,5.849,0,0,0-2.357.474,5.217,5.217,0,0,0-1.805,1.306,5.619,5.619,0,0,0-1.119,1.968,7.713,7.713,0,0,0-.384,2.47,6.383,6.383,0,0,0,.384,2.272,4.924,4.924,0,0,0,1.083,1.724,4.806,4.806,0,0,0,1.666,1.095,5.783,5.783,0,0,0,2.155.384,4.119,4.119,0,0,0,3.243-1.356v.172h.019v.9h2.8V538.926Zm-.89,8.085a2.544,2.544,0,0,1-3.774,0,4.879,4.879,0,0,1,0-5.033,2.541,2.541,0,0,1,3.774,0,4.879,4.879,0,0,1,0,5.033Z" transform="translate(-142.468 -495.551)"/><path class="e" d="M436.505,538.926v.278a.084.084,0,0,1-.017-.007v.552c-.5-1-2.3-1.094-2.849-1.1a5.853,5.853,0,0,0-2.358.474,5.21,5.21,0,0,0-1.8,1.306,5.631,5.631,0,0,0-1.119,1.968,7.711,7.711,0,0,0-.384,2.47,6.381,6.381,0,0,0,.384,2.272,4.922,4.922,0,0,0,1.084,1.724,4.806,4.806,0,0,0,1.666,1.095,5.787,5.787,0,0,0,2.155.384,4.117,4.117,0,0,0,3.243-1.356v.172h.019v.9h2.8V538.926Zm-.89,8.085a2.544,2.544,0,0,1-3.774,0,4.875,4.875,0,0,1,0-5.033,2.541,2.541,0,0,1,3.774,0,4.878,4.878,0,0,1,0,5.033Z" transform="translate(-369.511 -495.551)"/><path class="f" d="M267.157,396.073c-3.316-7.083-10.009-3.745-7.111,2.223a11.638,11.638,0,0,0,7.111-2.223" transform="translate(-229.012 -373.437)"/><path class="g" d="M275.464,421.933a15.6,15.6,0,0,1-4.762-5.909,11.638,11.638,0,0,1-7.111,2.223l.016.034a19.457,19.457,0,0,0,4.678,6.112,20.537,20.537,0,0,0,6.667-2.16c.178-.1.347-.2.512-.3" transform="translate(-232.558 -393.388)"/><path class="h" d="M547.038,497.129l.93,2.323.931-2.323h.487v2.847h-.375v-1.109l.035-1.2-.935,2.305h-.288l-.932-2.3.037,1.191v1.109h-.376v-2.847Zm-1.049.308h-.915v2.539H544.7v-2.539h-.913v-.308h2.2Z" transform="translate(-465.999 -460.959)"/></svg>